<?xml version="1.0" encoding="utf-8"?>
<!-- Svg Vector Icons : http://www.onlinewebfonts.com/icon -->
<!DOCTYPE svg PUBLIC "-//W3C//DTD SVG 1.1//EN" "http://www.w3.org/Graphics/SVG/1.1/DTD/svg11.dtd">
<svg version="1.1" xmlns="http://www.w3.org/2000/svg" xmlns:xlink="http://www.w3.org/1999/xlink" x="0px" y="0px" viewBox="0 0 256 256" enable-background="new 0 0 256 256" xml:space="preserve">
<metadata> Svg Vector Icons : http://www.onlinewebfonts.com/icon </metadata>
<g><g><path fill="#000000" d="M100.8,164.3c0,3.8-0.6,7.7-1.8,11.6c-1.2,4-3.2,7.6-6.1,10.8c-2.9,3.2-6.3,4.8-10.3,4.8c-4,0-7.4-1.6-10.3-4.8s-4.9-6.8-6.1-10.8c-1.2-4-1.8-7.9-1.8-11.6c0-3.8,0.6-7.7,1.8-11.6c1.2-4,3.2-7.6,6.1-10.8c2.9-3.2,6.3-4.8,10.3-4.8c4,0,7.4,1.6,10.3,4.8c2.9,3.2,4.9,6.8,6.1,10.8C100.2,156.7,100.8,160.5,100.8,164.3z M191.5,164.3c0,3.8-0.6,7.7-1.8,11.6c-1.2,4-3.2,7.6-6.1,10.8c-2.9,3.2-6.3,4.8-10.3,4.8c-4,0-7.4-1.6-10.3-4.8c-2.9-3.2-4.9-6.8-6.1-10.8c-1.2-4-1.8-7.9-1.8-11.6c0-3.8,0.6-7.7,1.8-11.6c1.2-4,3.2-7.6,6.1-10.8c2.9-3.2,6.3-4.8,10.3-4.8c4,0,7.4,1.6,10.3,4.8c2.9,3.2,4.9,6.8,6.1,10.8C190.9,156.7,191.5,160.5,191.5,164.3z M214.2,164.3c0-11.3-3.3-21-9.8-28.9c-6.5-7.9-15.4-11.9-26.5-11.9c-3.9,0-13.1,1-27.6,3c-6.7,1-14.1,1.6-22.3,1.6c-8.1,0-15.6-0.5-22.3-1.6c-14.4-2-23.6-3-27.6-3c-11.1,0-20,4-26.5,11.9s-9.8,17.6-9.8,28.9c0,8.3,1.5,15.6,4.5,21.8c3,6.2,6.9,11.1,11.5,14.6c4.6,3.5,10.4,6.4,17.3,8.5c6.9,2.1,13.5,3.5,19.9,4.2c6.3,0.6,13.4,1,21.1,1H140c7.8,0,14.8-0.3,21.1-1c6.3-0.7,13-2,19.9-4.2c6.9-2.1,12.7-5,17.3-8.5c4.6-3.5,8.5-8.4,11.5-14.6C212.7,179.9,214.2,172.6,214.2,164.3L214.2,164.3z M246,139.4c0,19.6-2.9,35.2-8.6,46.9c-3.6,7.3-8.6,13.6-15,18.9c-6.4,5.3-13.1,9.4-20,12.2c-7,2.8-15,5.1-24.1,6.7c-9.1,1.7-17.2,2.7-24.3,3.1s-15,0.7-23.7,0.7c-7.4,0-14.1-0.1-20.1-0.4c-6-0.3-13-0.9-20.9-1.8s-15.1-2.3-21.6-4.3c-6.5-2-13-4.4-19.4-7.3c-6.4-2.9-12.2-6.8-17.2-11.5c-5-4.7-9.1-10.2-12.2-16.3C12.9,174.7,10,159,10,139.4c0-22.4,6.4-41.1,19.3-56.2c-2.6-7.8-3.8-15.8-3.8-24.1c0-11,2.4-21.3,7.2-30.9c10.2,0,19.2,1.9,26.9,5.6c7.8,3.7,16.7,9.6,26.8,17.5c13.9-3.3,28.5-5,43.8-5c14,0,27.2,1.5,39.7,4.5c9.9-7.8,18.8-13.5,26.5-17.2c7.8-3.7,16.7-5.5,26.8-5.5c4.8,9.6,7.2,19.9,7.2,30.9c0,8.2-1.3,16.2-3.8,23.8C239.6,98,246,116.9,246,139.4L246,139.4z"/></g></g>
</svg>